<svg width="20" height="11" viewBox="0 0 20 11" fill="none" xmlns="http://www.w3.org/2000/svg">
<path d="M20 3.19841L20 7.23661C19.6156 7.23661 19.2317 7.23661 18.8473 7.23622C18.8426 7.76042 18.8528 8.28502 18.8422 8.80923C18.834 9.32719 18.5821 9.83382 18.17 10.1483C17.85 10.4037 17.4379 10.5174 17.0325 10.5135C12.0576 10.5151 7.08268 10.5135 2.10779 10.5143C1.80389 10.5154 1.49178 10.5225 1.19999 10.4248C0.691408 10.2635 0.271493 9.85022 0.100013 9.34516C0.0379043 9.16938 0.0144688 8.98305 0.000405881 8.79829L0.000406191 1.69062C0.0222816 1.02853 0.441803 0.3969 1.05742 0.144171C1.3871 -0.00387312 1.75506 -0.00309172 2.10935 0.00120508C7.07057 0.00159592 12.0322 0.00159614 16.9938 0.00120573C17.2278 0.00394006 17.4661 0.0230802 17.6872 0.10511C18.1875 0.2762 18.5926 0.693379 18.7551 1.19571C18.8328 1.42032 18.8449 1.66016 18.8469 1.89609C18.8465 2.33006 18.8457 2.76443 18.8473 3.19841C19.2317 3.19802 19.6156 3.19841 20 3.19841ZM17.6899 1.70351C17.6821 1.38711 17.3821 1.13009 17.0696 1.15548C11.9662 1.15548 6.86238 1.1547 1.75896 1.15587C1.43788 1.13556 1.14335 1.41914 1.15507 1.7414C1.15234 4.07261 1.15507 6.40381 1.1539 8.73501C1.14218 8.95298 1.25194 9.17407 1.44413 9.28188C1.59647 9.37562 1.78162 9.35961 1.95232 9.36078C7.00456 9.35883 12.0568 9.36234 17.1087 9.35883C17.4227 9.36977 17.7008 9.08852 17.6918 8.77564C17.6922 6.41865 17.6961 4.06089 17.6899 1.70351Z" fill="white"/>
<path d="M13.2362 1.78418C13.5123 1.78418 13.7362 2.00804 13.7362 2.28418C13.7362 4.2665 13.7365 6.24907 13.7362 8.23139C13.7362 8.5075 13.5123 8.7313 13.2362 8.7313C12.7255 8.7313 12.2149 8.7313 11.7042 8.7313C11.428 8.7313 11.2042 8.50745 11.2042 8.2313C11.2042 6.24901 11.2042 4.26647 11.2042 2.28418C11.2042 2.00804 11.428 1.78418 11.7042 1.78418C12.2149 1.78418 12.7255 1.78418 13.2362 1.78418Z" fill="white"/>
<path d="M10.1189 1.78418C10.395 1.78418 10.6189 2.00799 10.6189 2.2841C10.6192 4.26644 10.6192 6.24904 10.6189 8.23139C10.6189 8.5075 10.395 8.7313 10.1189 8.7313C9.60884 8.7313 9.09875 8.7313 8.58865 8.7313C8.31258 8.7313 8.08874 8.50755 8.08867 8.23147C8.08814 6.2491 8.08841 4.26647 8.08874 2.28409C8.08878 2.00799 8.31263 1.78418 8.58874 1.78418C9.0988 1.78418 9.60887 1.78418 10.1189 1.78418Z" fill="white"/>
<path d="M6.99513 1.7844C7.27088 1.78465 7.49406 2.00844 7.49398 2.2842C7.49341 4.26671 7.49341 6.24922 7.49398 8.23174C7.49406 8.50749 7.27088 8.73128 6.99513 8.73154C6.48413 8.73201 5.97316 8.73159 5.46231 8.73149C5.18611 8.73143 4.96212 8.50758 4.96208 8.23138C4.9618 6.24919 4.9618 4.26675 4.96208 2.28455C4.96212 2.00835 5.18611 1.7845 5.46231 1.78445C5.97316 1.78435 6.48413 1.78393 6.99513 1.7844Z" fill="white"/>
<path d="M3.86937 1.7842C4.14542 1.78425 4.36914 2.00807 4.36914 2.28412C4.36914 4.2666 4.36914 6.24907 4.36914 8.23155C4.36914 8.50751 4.14556 8.7313 3.8696 8.73143C3.35912 8.73166 2.84873 8.73157 2.33825 8.73151C2.06214 8.73148 1.83829 8.50767 1.83826 8.23156C1.83802 6.24924 1.83828 4.26667 1.83833 2.28435C1.83833 2.00821 2.06219 1.78435 2.33833 1.78432C2.84871 1.78425 3.359 1.78413 3.86937 1.7842Z" fill="white"/>
</svg>
