<svg width="14" height="17" viewBox="0 0 14 17" fill="none" xmlns="http://www.w3.org/2000/svg">
<path d="M10.6955 1.79667V0.583333C10.6955 0.264444 10.431 0 10.1122 0C9.79327 0 9.52882 0.264444 9.52882 0.583333V1.75H4.47327V0.583333C4.47327 0.264444 4.20882 0 3.88994 0C3.57105 0 3.3066 0.264444 3.3066 0.583333V1.79667C1.2066 1.99111 0.187713 3.24333 0.0321574 5.10222C0.0166019 5.32778 0.203269 5.51444 0.421046 5.51444H13.581C13.8066 5.51444 13.9933 5.32 13.9699 5.10222C13.8144 3.24333 12.7955 1.99111 10.6955 1.79667Z" fill="white"/>
<path d="M13.2222 6.68066H0.777778C0.35 6.68066 0 7.03066 0 7.45844V12.2496C0 14.5829 1.16667 16.1384 3.88889 16.1384H10.1111C12.8333 16.1384 14 14.5829 14 12.2496V7.45844C14 7.03066 13.65 6.68066 13.2222 6.68066ZM4.83 13.1907C4.79111 13.2218 4.75222 13.2607 4.71333 13.284C4.66667 13.3151 4.62 13.3384 4.57333 13.354C4.52667 13.3773 4.48 13.3929 4.43333 13.4007C4.37889 13.4084 4.33222 13.4162 4.27778 13.4162C4.17667 13.4162 4.07556 13.3929 3.98222 13.354C3.88111 13.3151 3.80333 13.2607 3.72556 13.1907C3.58556 13.0429 3.5 12.8407 3.5 12.6384C3.5 12.4362 3.58556 12.234 3.72556 12.0862C3.80333 12.0162 3.88111 11.9618 3.98222 11.9229C4.12222 11.8607 4.27778 11.8451 4.43333 11.8762C4.48 11.884 4.52667 11.8996 4.57333 11.9229C4.62 11.9384 4.66667 11.9618 4.71333 11.9929C4.75222 12.024 4.79111 12.0551 4.83 12.0862C4.97 12.234 5.05556 12.4362 5.05556 12.6384C5.05556 12.8407 4.97 13.0429 4.83 13.1907ZM4.83 10.4684C4.68222 10.6084 4.48 10.694 4.27778 10.694C4.07556 10.694 3.87333 10.6084 3.72556 10.4684C3.58556 10.3207 3.5 10.1184 3.5 9.91622C3.5 9.714 3.58556 9.51178 3.72556 9.364C3.94333 9.14622 4.28556 9.07622 4.57333 9.20066C4.67444 9.23955 4.76 9.294 4.83 9.364C4.97 9.51178 5.05556 9.714 5.05556 9.91622C5.05556 10.1184 4.97 10.3207 4.83 10.4684ZM7.55222 13.1907C7.40444 13.3307 7.20222 13.4162 7 13.4162C6.79778 13.4162 6.59556 13.3307 6.44778 13.1907C6.30778 13.0429 6.22222 12.8407 6.22222 12.6384C6.22222 12.4362 6.30778 12.234 6.44778 12.0862C6.73556 11.7984 7.26444 11.7984 7.55222 12.0862C7.69222 12.234 7.77778 12.4362 7.77778 12.6384C7.77778 12.8407 7.69222 13.0429 7.55222 13.1907ZM7.55222 10.4684C7.51333 10.4996 7.47444 10.5307 7.43556 10.5618C7.38889 10.5929 7.34222 10.6162 7.29556 10.6318C7.24889 10.6551 7.20222 10.6707 7.15556 10.6784C7.10111 10.6862 7.05444 10.694 7 10.694C6.79778 10.694 6.59556 10.6084 6.44778 10.4684C6.30778 10.3207 6.22222 10.1184 6.22222 9.91622C6.22222 9.714 6.30778 9.51178 6.44778 9.364C6.51778 9.294 6.60333 9.23955 6.70444 9.20066C6.99222 9.07622 7.33444 9.14622 7.55222 9.364C7.69222 9.51178 7.77778 9.714 7.77778 9.91622C7.77778 10.1184 7.69222 10.3207 7.55222 10.4684ZM10.2744 13.1907C10.1267 13.3307 9.92444 13.4162 9.72222 13.4162C9.52 13.4162 9.31778 13.3307 9.17 13.1907C9.03 13.0429 8.94444 12.8407 8.94444 12.6384C8.94444 12.4362 9.03 12.234 9.17 12.0862C9.45778 11.7984 9.98667 11.7984 10.2744 12.0862C10.4144 12.234 10.5 12.4362 10.5 12.6384C10.5 12.8407 10.4144 13.0429 10.2744 13.1907ZM10.2744 10.4684C10.2356 10.4996 10.1967 10.5307 10.1578 10.5618C10.1111 10.5929 10.0644 10.6162 10.0178 10.6318C9.97111 10.6551 9.92444 10.6707 9.87778 10.6784C9.82333 10.6862 9.76889 10.694 9.72222 10.694C9.52 10.694 9.31778 10.6084 9.17 10.4684C9.03 10.3207 8.94444 10.1184 8.94444 9.91622C8.94444 9.714 9.03 9.51178 9.17 9.364C9.24778 9.294 9.32556 9.23955 9.42667 9.20066C9.56667 9.13844 9.72222 9.12289 9.87778 9.154C9.92444 9.16178 9.97111 9.17733 10.0178 9.20066C10.0644 9.21622 10.1111 9.23955 10.1578 9.27066C10.1967 9.30178 10.2356 9.33289 10.2744 9.364C10.4144 9.51178 10.5 9.714 10.5 9.91622C10.5 10.1184 10.4144 10.3207 10.2744 10.4684Z" fill="white"/>
</svg>
