<svg width="18" height="25" viewBox="0 0 18 25" fill="none" xmlns="http://www.w3.org/2000/svg">
<path d="M8.62769 0H8.68322C8.89906 0.0140727 9.10186 0.121317 9.23271 0.294557C9.9483 1.18163 10.6315 2.09393 11.3085 3.0106C12.0193 4.03111 12.746 5.04096 13.4012 6.09884C14.4084 7.70701 15.3433 9.36808 16.0878 11.1165C16.6629 12.4782 17.1216 13.9034 17.2814 15.3791C17.3939 16.683 17.2148 18.016 16.7435 19.237C15.7793 21.8273 13.507 23.8824 10.8358 24.5555C10.1516 24.7511 9.43937 24.8161 8.73102 24.8457H8.58858C7.27811 24.8175 5.96716 24.5235 4.79671 23.9222C2.89475 22.9789 1.37037 21.3008 0.599249 19.3156C0.110116 18.0714 -0.0835093 16.7111 0.032859 15.3786C0.26463 13.2818 1.07631 11.3048 2.00967 9.43359C3.00725 7.48622 4.16128 5.62085 5.42829 3.83895C6.26556 2.62238 7.16126 1.44755 8.08303 0.294557C8.21195 0.121802 8.41427 0.0164991 8.62769 0ZM3.21971 13.6181C3.1212 13.6462 3.03526 13.7166 2.99421 13.8112C2.58379 14.8419 2.29697 15.9667 2.47273 17.0814C2.65428 18.3941 3.37181 19.6077 4.38918 20.4428C5.87976 21.6963 7.98887 22.1287 9.85994 21.6303C10.0623 21.5837 10.182 21.3275 10.0671 21.1475C9.9739 20.982 9.77013 20.966 9.60355 20.9427C8.10138 20.7568 6.65523 20.0833 5.57025 19.0181C4.32883 17.8248 3.59344 16.0978 3.66683 14.3654C3.67456 14.2023 3.69773 14.0383 3.68132 13.8752C3.64221 13.6734 3.4085 13.5569 3.21971 13.6181Z" fill="white"/>
</svg>
