<svg width="15" height="17" viewBox="0 0 15 17" fill="none" xmlns="http://www.w3.org/2000/svg">
<path d="M7.26529 0H7.42044C8.02293 0.0215842 8.61946 0.227729 9.09619 0.598727C9.58262 0.970977 9.94423 1.50307 10.1107 2.09242C10.2793 2.68395 10.252 3.33054 10.0296 3.90424C9.88511 4.28838 9.6505 4.63466 9.36303 4.92621C10.2233 4.92746 11.0832 4.92652 11.9431 4.92652C12.1355 4.92683 12.3373 4.91369 12.5162 4.99784C12.7646 5.10576 12.9423 5.34757 12.9835 5.61377C13.5247 8.63087 14.0649 11.648 14.6058 14.6651C14.6402 14.9059 14.7253 15.1506 14.6687 15.3949C14.5945 15.738 14.2745 15.9977 13.9261 16.0161H0.765312C0.53727 15.9992 0.314233 15.8938 0.173153 15.7108C0.0192485 15.5234 -0.0304891 15.2669 0.0176844 15.032C0.581377 11.8857 1.14382 8.73942 1.70939 5.59375C1.76882 5.21994 2.11761 4.92183 2.49737 4.92808C3.43988 4.92433 4.38239 4.92871 5.3249 4.92589C5.03899 4.63435 4.80406 4.28932 4.65985 3.9058C4.42681 3.30583 4.40741 2.62671 4.60198 2.01328C4.77935 1.44833 5.13721 0.941885 5.61019 0.585276C6.08285 0.223037 6.67125 0.0222098 7.26529 0ZM7.04257 1.64259C6.70128 1.72549 6.39879 1.95634 6.23144 2.2654C6.07378 2.54318 6.03499 2.88259 6.11225 3.19165C6.20109 3.54231 6.44759 3.84981 6.77135 4.01154C7.07072 4.1645 7.43296 4.1914 7.75078 4.08098C8.04952 3.98307 8.30602 3.76566 8.45711 3.4907C8.61509 3.21261 8.65356 2.87258 8.57661 2.56352C8.49121 2.22755 8.26254 1.93069 7.95755 1.76521C7.6829 1.60974 7.3485 1.56814 7.04257 1.64259ZM7.66726 9.55117C7.37603 9.99599 7.30376 10.5562 7.38603 11.0746C7.45955 11.5319 7.6804 11.9864 8.06829 12.2561C8.4446 12.5245 8.92196 12.6111 9.37616 12.5802C9.83037 12.5457 10.2752 12.3837 10.6474 12.1219C10.7281 12.0725 10.7719 11.9805 10.7688 11.887C10.7701 11.5322 10.7707 11.1775 10.7685 10.8228C10.7769 10.6911 10.6681 10.5672 10.5345 10.5691C10.1914 10.5638 9.84758 10.5659 9.50442 10.5678C9.35552 10.5628 9.20881 10.6723 9.18785 10.8228C9.15125 10.9967 9.29858 11.1756 9.47533 11.1784C9.65801 11.1878 9.84163 11.1791 10.0246 11.1822C10.0246 11.337 10.0265 11.4922 10.0234 11.6477C9.85415 11.7656 9.66865 11.8629 9.46782 11.9136C9.1353 12.0018 8.74709 11.9514 8.48746 11.7124C8.25159 11.5063 8.15087 11.1894 8.12553 10.8856C8.09957 10.5506 8.11646 10.1918 8.29101 9.89527C8.44429 9.63501 8.73364 9.47234 9.03175 9.44951C9.27512 9.42042 9.53945 9.46265 9.73215 9.62312C9.86447 9.72134 9.92265 9.90778 10.0931 9.95439C10.3096 10.0317 10.5614 9.85992 10.5746 9.63219C10.5968 9.42949 10.4335 9.27746 10.2987 9.15202C9.91702 8.82982 9.38524 8.78415 8.90694 8.82357C8.41113 8.85923 7.93659 9.132 7.66726 9.55117ZM4.0727 9.23554C4.06519 10.1715 4.0727 11.1077 4.06895 12.044C4.06895 12.1403 4.07114 12.242 4.11681 12.3293C4.18688 12.4647 4.34798 12.5445 4.49813 12.5157C4.66674 12.4932 4.79843 12.3368 4.80375 12.1685C4.81501 11.9182 4.80156 11.6674 4.81032 11.4171C5.01083 11.2175 5.20572 11.0123 5.40561 10.8121C5.7131 11.333 6.01747 11.8554 6.32309 12.3771C6.3647 12.4547 6.43852 12.5217 6.53111 12.5226C6.67626 12.5264 6.82266 12.5304 6.9678 12.5198C7.13641 12.4985 7.22024 12.2786 7.11733 12.1457C6.71786 11.5278 6.31496 10.9119 5.91455 10.2944C6.20547 9.99349 6.49639 9.69225 6.78793 9.39164C6.85206 9.32188 6.93464 9.259 6.95873 9.16297C6.99439 9.02971 6.88835 8.88081 6.75008 8.87487C6.56427 8.88175 6.32622 8.81481 6.19327 8.98498C5.73156 9.48736 5.27141 9.99068 4.80844 10.4918C4.80531 10.0798 4.81094 9.66754 4.80594 9.25556C4.80938 9.07726 4.67706 8.90396 4.49688 8.88112C4.28416 8.83764 4.07145 9.02033 4.0727 9.23554Z" fill="white"/>
</svg>
